<svg width="16" height="22" viewBox="0 0 16 22" fill="none" xmlns="http://www.w3.org/2000/svg">
<path d="M3.05657 1.41795L4.22357 1.06619C5.54607 0.667551 6.95907 1.31179 7.52543 2.57161L8.4271 4.57733C8.90983 5.65117 8.65544 6.91317 7.79438 7.71612L6.30008 9.10957C6.25641 9.1503 6.22875 9.20532 6.22213 9.26466C6.17777 9.66181 6.447 10.4352 7.06726 11.5095C7.51831 12.2908 7.92656 12.8387 8.27405 13.1468C8.51615 13.3615 8.64943 13.4079 8.70617 13.391L10.7165 12.7764C11.8421 12.4323 13.0619 12.8426 13.7506 13.7971L15.0313 15.5721C15.8374 16.6893 15.6925 18.2306 14.6922 19.1779L13.8058 20.0173C12.8494 20.9231 11.4879 21.2606 10.2191 20.9065C7.46502 20.1378 4.99571 17.8137 2.78383 13.9826C0.568887 10.1462 -0.208306 6.84173 0.508146 4.06994C0.836015 2.80146 1.80214 1.79607 3.05657 1.41795ZM3.48947 2.85413C2.73681 3.081 2.15714 3.68423 1.96042 4.44532C1.35777 6.77684 2.04662 9.70569 4.08287 13.2326C6.1164 16.7548 8.30535 18.815 10.6224 19.4617C11.3836 19.6742 12.2006 19.4717 12.7744 18.9282L13.6608 18.0888C14.1154 17.6582 14.1813 16.9576 13.8149 16.4498L12.5342 14.6748C12.2211 14.241 11.6667 14.0544 11.155 14.2109L9.1397 14.827C7.96999 15.1757 6.90831 14.2342 5.76822 12.2595C4.99992 10.9288 4.64183 9.90012 4.73139 9.09817C4.77779 8.68273 4.97137 8.29763 5.27708 8.01254L6.77139 6.61909C7.16278 6.25411 7.27841 5.68047 7.05898 5.19237L6.15732 3.18665C5.89988 2.614 5.25761 2.32116 4.65647 2.50236L3.48947 2.85413Z" fill="#222222" fill-opacity="0.6"/>
</svg>
