<svg width="18" height="20" viewBox="0 0 18 20" fill="none" xmlns="http://www.w3.org/2000/svg">
<path d="M2.99902 18.5098L2.99901 18.51H3.012H17.5V19.51H3C2.49363 19.51 1.85733 19.339 1.35829 18.9435C0.877282 18.5623 0.5 17.956 0.5 17.01V3.01001C0.5 2.06404 0.877282 1.45768 1.35829 1.07651C1.85733 0.681045 2.49363 0.51001 3 0.51001H16C16.8269 0.51001 17.5 1.18315 17.5 2.01001V15.5H17.049H17.0351L17.0213 15.5008C16.9927 15.5024 16.9674 15.506 16.9464 15.51H3.011V15.5099L2.99863 15.5102C2.75202 15.5163 2.43689 15.5623 2.15201 15.7321C1.84708 15.9139 1.61631 16.2148 1.53322 16.6414L1.53319 16.6414L1.53216 16.647C1.51176 16.7586 1.5 16.8787 1.5 17.01C1.5 17.5395 1.68902 17.9471 2.03088 18.206C2.34586 18.4445 2.72096 18.5026 2.99902 18.5098ZM16.878 15.5273C16.8774 15.5275 16.8778 15.5274 16.8787 15.5271L16.878 15.5273ZM16 14.51H16.5V14.01V2.01001V1.51001H16H14H13.5V2.01001V8.20099L12.2236 7.5628L12 7.45099L11.7764 7.5628L10.5 8.20099V2.01001V1.51001H10H3V1.50983L2.98667 1.51019C2.71326 1.51748 2.34118 1.57589 2.02806 1.81467C1.68873 2.07344 1.5 2.4803 1.5 3.01001V14.01V14.51H2H16Z" stroke="#222222" stroke-opacity="0.6"/>
</svg>
